<svg width="35" height="35" viewBox="0 0 35 35" fill="none" xmlns="http://www.w3.org/2000/svg">
<path d="M15.5298 1.55657C16.0017 -0.518826 18.9583 -0.51882 19.4302 1.55657L21.7398 11.7134C21.9104 12.4637 22.4962 13.0496 23.2465 13.2202L33.4034 15.5298C35.4788 16.0017 35.4788 18.9583 33.4034 19.4302L23.2465 21.7398C22.4962 21.9104 21.9104 22.4962 21.7398 23.2465L19.4302 33.4034C18.9583 35.4788 16.0017 35.4788 15.5298 33.4034L13.2202 23.2465C13.0496 22.4962 12.4637 21.9104 11.7134 21.7398L1.55657 19.4302C-0.518826 18.9583 -0.51882 16.0017 1.55657 15.5298L11.7134 13.2202C12.4637 13.0496 13.0496 12.4637 13.2202 11.7134L15.5298 1.55657Z" fill="white"/>
</svg>
